<svg width="210.00000000000003" height="154.89829895512565" viewBox="0 -18 210.00000000000003 154.89829895512565" ><g featurekey="monogramFeature-0" transform="matrix(1.7602907419204712,0,0,1.7602907419204712,53.63906487722146,-55.45515643016521)" fill="#000000"><path d="M19.44 24.659999999999997 c-0.18 0.66 -0.36 1.5 -0.54 2.46 c5.58 -0.36 11.28 -0.54 16.44 -0.72 c12.6 -0.48 17.04 -0.24 18.18 -0.66 c1.14 -0.36 1.08 0.12 0.66 0.54 c-0.24 0.3 -1.26 1.08 -2.22 1.08 c-0.9 0.06 -9.36 0.06 -16.92 0.36 c-6.24 0.24 -11.7 0.48 -16.44 0.84 c-0.78 3.72 -1.8 9.24 -2.76 16.8 c-1.44 10.92 -4.26 27.6 -4.5 29.58 c-0.18 1.98 -1.56 4.08 -1.56 2.52 s1.08 -10.02 4.5 -31.86 c1.26 -8.16 2.28 -13.5 3.06 -16.98 c-3.84 0.3 -7.2 0.6 -9.9 1.02 c-7.32 1.14 -13.14 2.58 -13.38 4.02 c-0.18 1.02 -0.84 0.9 -1.14 0.24 c-0.42 -1.14 0.06 -2.34 9.96 -4.68 c4.38 -1.02 9.48 -1.62 14.76 -1.98 c1.08 -4.5 1.74 -5.16 2.22 -5.64 c0.9 -0.84 1.68 0.18 1.02 0.6 c-0.72 0.42 -1.08 0.96 -1.44 2.46 z M23.6205 60 l-0.12 0.48 c5.52 -3.06 11.1 -5.04 12.3 -5.04 c0.54 0 0.78 0.66 0.3 0.66 c-1.2 0 -7.08 2.16 -12.78 5.64 c-1.38 7.68 -3.06 14.88 -5.1 19.32 c-2.7 5.58 -6.42 8.1 -9.6 8.1 c-1.62 0 -3.78 -1.02 -3.78 -4.14 c0 -4.44 3.54 -11.52 10.5 -18.54 c1.86 -1.92 4.26 -3.66 6.78 -5.16 c0.48 -3.12 1.02 -6.96 1.08 -8.22 c0.06 -0.96 1.68 -0.54 1.56 0.54 c-0.18 1.38 -0.84 4.68 -1.14 6.36 z M17.020500000000002 80.4 c2.04 -4.38 3.9 -11.76 4.92 -17.76 c-2.1 1.38 -4.08 2.94 -5.82 4.68 c-7.2 7.32 -10.08 14.46 -10.08 17.88 c0 1.74 0.72 2.88 2.1 2.88 c2.22 0 6.66 -2.64 8.88 -7.68 z M24.820500000000003 48.42 c-0.36 -0.06 -0.66 -0.66 -0.66 -1.08 c0.06 -0.36 0.84 -1.56 1.14 -1.56 c0.24 0 0.54 0.78 0.48 1.08 c0 0.24 -0.12 0.66 -0.3 1.02 c-0.24 0.36 -0.54 0.54 -0.66 0.54 z M36.201 52.56 c3.12 -5.34 6.66 -11.1 9.24 -15.36 l1.44 -3.9 c2.4 -6.48 2.64 -7.26 3.18 -7.26 s1.44 1.2 1.32 1.8 c-0.06 0.3 -1.62 3.24 -3.96 7.5 c-2.46 7.38 -5.58 16.14 -8.28 25.8 c-2.94 10.44 -3.18 14.82 -2.64 14.94 c0.48 0.12 -0.18 1.08 -0.84 0.72 c-0.9 -0.48 -0.42 -5.34 2.52 -16.26 c1.86 -6.9 3.9 -13.38 5.82 -19.08 c-2.16 3.66 -4.56 7.68 -6.9 11.4 c0.9 0.42 1.56 0.84 1.92 1.14 c0.36 0.36 0.06 0.78 -0.42 0.54 l-2.04 -0.9 c-7.08 11.1 -7.98 12.48 -9.12 12.48 c-0.96 0 -1.98 -1.38 -1.98 -3.3 c0 -4.8 3.6 -10.68 8.46 -10.68 c0.72 0 1.56 0.18 2.28 0.42 z M27.441 65.04 c0.66 0 6.06 -7.98 8.22 -11.64 c-0.36 -0.06 -0.72 -0.12 -1.08 -0.12 c-4.5 0 -7.74 5.58 -7.74 9.48 c0 1.02 0.06 2.28 0.6 2.28 z"></path></g></svg>